<svg xmlns="http://www.w3.org/2000/svg" width="528" height="548" viewBox="0 0 528 548" font-family="Helvetica,Arial,sans-serif">
<rect width="528" height="548" fill="#ffffff"/>
<rect x="64.0" y="64.0" width="400.0" height="400.0" fill="none" stroke="#b0b0b0" stroke-width="1.5" stroke-dasharray="8 5"/>
<text x="64.0" y="50.0" font-size="14" fill="#777">panel 100 x 100 mm — dashed = routed slots, snap apart</text>
<rect x="72.0" y="72.0" width="384.0" height="60.0" fill="#eef2f6" stroke="#2b2b2b" stroke-width="1.8"/>
<line x1="84.0" y1="102.0" x2="444.0" y2="102.0" stroke="#c0392b" stroke-width="3"/>
<rect x="62.0" y="88.0" width="20.0" height="28.0" fill="#404040" stroke="#202020" stroke-width="1" rx="1.5"/>
<rect x="446.0" y="88.0" width="20.0" height="28.0" fill="#404040" stroke="#202020" stroke-width="1" rx="1.5"/>
<text x="264.0" y="126.0" font-size="13" text-anchor="middle" fill="#333">L = 90 mm</text>
<rect x="72.0" y="148.0" width="200.0" height="60.0" fill="#eef2f6" stroke="#2b2b2b" stroke-width="1.8"/>
<line x1="84.0" y1="178.0" x2="260.0" y2="178.0" stroke="#c0392b" stroke-width="3"/>
<rect x="62.0" y="164.0" width="20.0" height="28.0" fill="#404040" stroke="#202020" stroke-width="1" rx="1.5"/>
<rect x="262.0" y="164.0" width="20.0" height="28.0" fill="#404040" stroke="#202020" stroke-width="1" rx="1.5"/>
<text x="172.0" y="202.0" font-size="13" text-anchor="middle" fill="#333">L = 40 mm</text>
<rect x="72.0" y="224.0" width="80.0" height="60.0" fill="#eef2f6" stroke="#2b2b2b" stroke-width="1.8"/>
<line x1="84.0" y1="254.0" x2="140.0" y2="254.0" stroke="#c0392b" stroke-width="3"/>
<rect x="62.0" y="240.0" width="20.0" height="28.0" fill="#404040" stroke="#202020" stroke-width="1" rx="1.5"/>
<rect x="142.0" y="240.0" width="20.0" height="28.0" fill="#404040" stroke="#202020" stroke-width="1" rx="1.5"/>
<text x="168.0" y="259.0" font-size="13" fill="#333">L = 10 mm  (reference / thru)</text>
<rect x="376.0" y="148.0" width="60.0" height="200.0" fill="#eef2f6" stroke="#2b2b2b" stroke-width="1.8"/>
<line x1="406.0" y1="160.0" x2="406.0" y2="336.0" stroke="#1f6fb2" stroke-width="3"/>
<rect x="392.0" y="138.0" width="28.0" height="20.0" fill="#404040" stroke="#202020" stroke-width="1" rx="1.5"/>
<rect x="392.0" y="338.0" width="28.0" height="20.0" fill="#404040" stroke="#202020" stroke-width="1" rx="1.5"/>
<text x="406.0" y="140.0" font-size="13" text-anchor="middle" fill="#1f6fb2">40 mm</text>
<text x="406.0" y="366.0" font-size="12" text-anchor="middle" fill="#1f6fb2">rotated 90&#176;</text>
<text x="406.0" y="380.0" font-size="12" text-anchor="middle" fill="#1f6fb2">weave check</text>
<rect x="72.0" y="312.0" width="176.0" height="120.0" fill="#eef2f6" stroke="#2b2b2b" stroke-width="1.8"/>
<rect x="128.0" y="344.0" width="64.0" height="56.0" fill="#f3e2c7" stroke="#8a6d3b" stroke-width="1.5"/>
<line x1="84.0" y1="352.0" x2="128.0" y2="352.0" stroke="#c0392b" stroke-width="3"/>
<rect x="62.0" y="338.0" width="20.0" height="28.0" fill="#404040" stroke="#202020" stroke-width="1" rx="1.5"/>
<line x1="84.0" y1="392.0" x2="128.0" y2="392.0" stroke="#c0392b" stroke-width="3"/>
<rect x="62.0" y="378.0" width="20.0" height="28.0" fill="#404040" stroke="#202020" stroke-width="1" rx="1.5"/>
<line x1="192.0" y1="352.0" x2="236.0" y2="352.0" stroke="#c0392b" stroke-width="3"/>
<rect x="238.0" y="338.0" width="20.0" height="28.0" fill="#404040" stroke="#202020" stroke-width="1" rx="1.5"/>
<line x1="192.0" y1="392.0" x2="236.0" y2="392.0" stroke="#c0392b" stroke-width="3"/>
<rect x="238.0" y="378.0" width="20.0" height="28.0" fill="#404040" stroke="#202020" stroke-width="1" rx="1.5"/>
<text x="160.0" y="428.0" font-size="12" text-anchor="middle" fill="#6b5527">coupler, 4 ports</text>
<text x="264.0" y="352.0" font-size="12" fill="#666">x2: one bare,</text>
<text x="264.0" y="367.0" font-size="12" fill="#666">one with can</text>
<text x="376.0" y="384.0" font-size="12" fill="#888">panel axes</text>
<line x1="376.0" y1="400.0" x2="432.0" y2="400.0" stroke="#888" stroke-width="1.5" marker-end="url(#a)"/>
<line x1="376.0" y1="400.0" x2="376.0" y2="448.0" stroke="#888" stroke-width="1.5" marker-end="url(#a)"/>
<defs><marker id="a" markerWidth="7" markerHeight="7" refX="6" refY="3.5" orient="auto"><path d="M0,0 L7,3.5 L0,7 z" fill="#888"/></marker></defs>
<rect x="64" y="478" width="16" height="10" fill="#404040" rx="1.5"/>
<text x="88" y="487" font-size="13" fill="#333">edge-mount SMA</text>
<line x1="234" y1="483" x2="264" y2="483" stroke="#c0392b" stroke-width="3"/>
<text x="272" y="487" font-size="13" fill="#333">50 &#937; microstrip, w = 0.37 mm, straight, no bends</text>
</svg>